<?xml version="1.0" standalone="no"?>
<!DOCTYPE svg PUBLIC "-//W3C//DTD SVG 20010904//EN"
 "http://www.w3.org/TR/2001/REC-SVG-20010904/DTD/svg10.dtd">
<svg version="1.0" xmlns="http://www.w3.org/2000/svg"
 width="424.000000pt" height="162.000000pt" viewBox="0 0 424.000000 162.000000"
 preserveAspectRatio="xMidYMid meet">

<g transform="translate(0.000000,162.000000) scale(0.100000,-0.100000)"
fill="#000000" stroke="none">
<path d="M1710 1520 l0 -60 85 0 85 0 0 60 0 60 -85 0 -85 0 0 -60z"/>
<path d="M110 1255 l0 -295 95 0 95 0 0 295 0 295 -95 0 -95 0 0 -295z"/>
<path d="M1450 1524 c-6 -14 -10 -28 -10 -32 0 -4 -5 -24 -11 -44 -9 -35 -13
-38 -44 -38 l-35 0 0 -60 0 -60 30 0 30 0 0 -119 c0 -65 5 -132 11 -150 19
-53 90 -78 190 -66 l59 7 0 49 c0 46 -2 49 -26 49 -58 0 -64 11 -64 125 l0
105 45 0 45 0 0 60 0 60 -45 0 -45 0 0 70 0 70 -60 0 c-56 0 -61 -2 -70 -26z"/>
<path d="M2005 1480 c-17 -70 -17 -70 -51 -70 l-34 0 0 -60 c0 -60 0 -60 29
-60 l29 0 4 -139 c3 -118 6 -142 21 -159 26 -29 105 -45 177 -37 l60 7 0 48 0
49 -37 3 c-51 4 -63 31 -63 141 l0 87 50 0 50 0 0 60 0 60 -50 0 -50 0 0 70 0
70 -59 0 -59 0 -17 -70z"/>
<path d="M2875 1538 c-2 -7 -10 -38 -18 -68 -13 -53 -14 -55 -50 -58 l-37 -3
0 -60 c0 -58 0 -59 29 -59 l29 0 4 -136 3 -136 32 -28 c38 -34 102 -46 176
-34 l52 9 3 48 3 47 -35 0 c-57 0 -66 18 -66 131 l0 99 50 0 50 0 0 60 0 60
-50 0 -50 0 0 70 0 70 -60 0 c-40 0 -62 -4 -65 -12z"/>
<path d="M617 1406 c-22 -8 -49 -24 -61 -35 -29 -27 -32 -27 -39 9 -6 30 -7
30 -72 30 l-65 0 0 -225 0 -225 80 0 80 0 0 144 c0 130 2 146 21 170 15 19 30
26 54 26 58 0 65 -22 65 -192 l0 -148 80 0 80 0 0 173 c0 189 -8 221 -62 260
-34 25 -112 31 -161 13z"/>
<path d="M1016 1409 c-90 -22 -126 -64 -126 -146 0 -39 5 -50 35 -78 34 -32
54 -39 188 -65 33 -7 61 -18 64 -26 18 -47 -89 -63 -133 -19 -22 22 -34 25
-94 25 -77 0 -83 -6 -55 -60 44 -85 242 -117 364 -58 81 39 104 147 45 209
-31 32 -60 43 -154 59 -96 16 -102 19 -98 43 3 19 11 22 50 25 39 3 49 -1 60
-17 11 -18 23 -21 90 -21 l77 0 -9 31 c-13 43 -28 59 -78 81 -51 23 -169 32
-226 17z"/>
<path d="M3283 1410 c-17 -4 -52 -19 -76 -33 -63 -37 -92 -98 -92 -192 0 -138
75 -218 217 -232 194 -18 316 110 278 293 -10 47 -21 67 -54 100 -62 63 -172
88 -273 64z m142 -135 c22 -21 25 -33 25 -90 0 -57 -3 -69 -25 -90 -32 -33
-89 -34 -122 -3 -20 18 -23 31 -23 92 0 58 4 74 22 93 30 32 90 32 123 -2z"/>
<path d="M1710 1185 l0 -225 85 0 85 0 0 225 0 225 -85 0 -85 0 0 -225z"/>
<path d="M2280 1234 c0 -207 8 -235 74 -265 23 -10 55 -19 72 -19 42 0 118 27
140 51 23 26 32 24 36 -8 3 -27 5 -28 71 -31 l67 -3 0 226 0 225 -85 0 -85 0
0 -154 c0 -149 -1 -155 -22 -170 -33 -23 -74 -20 -92 6 -13 18 -16 53 -16 170
l0 148 -80 0 -80 0 0 -176z"/>
<path d="M1110 590 l0 -310 80 0 80 0 0 149 0 150 26 20 c32 25 52 26 82 5 21
-15 22 -21 22 -170 l0 -154 85 0 85 0 0 163 c-1 216 -19 265 -103 288 -53 14
-117 4 -161 -26 l-36 -24 0 109 0 110 -80 0 -80 0 0 -310z"/>
<path d="M70 575 l0 -295 90 0 90 0 0 105 0 105 125 0 125 0 0 65 0 65 -125 0
-125 0 0 55 0 55 145 0 145 0 0 70 0 70 -235 0 -235 0 0 -295z"/>
<path d="M713 730 c-82 -17 -128 -53 -139 -108 l-6 -32 76 0 c63 0 79 3 96 20
40 40 130 19 130 -30 0 -15 -12 -19 -87 -25 -158 -13 -223 -57 -223 -151 0
-92 44 -129 155 -129 58 0 78 5 118 27 l47 27 24 -24 c28 -28 96 -41 146 -28
34 9 35 11 38 61 3 49 2 52 -21 52 -14 0 -28 7 -31 16 -3 9 -6 67 -6 131 0
112 -1 115 -28 143 -16 15 -46 33 -68 39 -54 16 -171 22 -221 11z m157 -277
c0 -16 -4 -33 -8 -39 -21 -32 -106 -46 -130 -22 -36 36 21 88 96 88 39 0 42
-2 42 -27z"/>
<path d="M1599 683 c10 -27 51 -129 91 -227 l71 -179 -19 -26 c-16 -22 -28
-26 -76 -29 l-57 -3 3 -52 3 -52 55 -9 c103 -16 187 28 234 123 22 44 186 480
186 494 0 4 -35 7 -78 7 l-77 0 -40 -150 c-21 -82 -42 -150 -46 -150 -7 0 -29
66 -71 218 l-23 82 -87 0 -88 0 19 -47z"/>
</g>
</svg>
